<svg width="48" height="30" viewBox="0 0 48 30" fill="none" xmlns="http://www.w3.org/2000/svg">
<g clip-path="url(#clip0_207_1838)">
<path d="M44.9326 3.68764C44.9326 3.72262 44.9326 3.76634 44.9237 3.79258C44.8787 4.13363 44.8787 4.47468 44.9056 4.82448C44.9237 4.91193 44.9416 4.99938 45.0136 5.06934C45.1305 5.20051 45.3104 5.17428 45.3824 5.01687C45.4184 4.93817 45.4184 4.85946 45.4004 4.78076C45.3104 4.44845 45.2924 4.09865 45.2835 3.75759C45.2835 3.74011 45.2835 3.71387 45.2835 3.68764C45.3824 3.67889 45.4724 3.67015 45.5533 3.67015C45.6163 3.6614 45.6703 3.65266 45.7152 3.62642C45.8501 3.55647 45.8501 3.4078 45.7062 3.33784C45.6522 3.3116 45.5803 3.30286 45.5173 3.30286C45.2924 3.3116 45.0676 3.3116 44.8427 3.3116C44.7618 3.3116 44.6808 3.32035 44.5998 3.32909C44.5548 3.33784 44.5008 3.33784 44.4649 3.36408C44.4019 3.39031 44.366 3.43403 44.366 3.49524C44.3749 3.55647 44.4019 3.59144 44.4649 3.61768C44.5008 3.64392 44.5458 3.65266 44.5908 3.65266C44.6987 3.6614 44.8157 3.67889 44.9326 3.68764ZM47.4063 4.08991C47.4063 4.09865 47.4153 4.10739 47.4153 4.10739C47.4513 4.34351 47.4873 4.57088 47.5142 4.79825C47.5233 4.87695 47.5323 4.94691 47.5862 5.00812C47.7031 5.15679 47.8831 5.1393 47.964 4.98189C48 4.90319 48.009 4.82448 47.991 4.73703C47.937 4.47468 47.91 4.21233 47.856 3.95873C47.82 3.80132 47.7751 3.65266 47.7301 3.51274C47.7031 3.42529 47.6402 3.36407 47.5323 3.35533C47.4243 3.33784 47.3433 3.39031 47.2984 3.46902C47.2444 3.53897 47.1994 3.60893 47.1634 3.68764C47.1005 3.82756 47.0465 3.96748 46.9746 4.09865C46.9655 4.13363 46.9565 4.15987 46.9386 4.1861C46.9296 4.16861 46.9206 4.15987 46.9206 4.15987C46.8036 3.94124 46.6957 3.72262 46.5788 3.51274C46.5607 3.49524 46.5517 3.47776 46.5428 3.46027C46.4888 3.38157 46.4258 3.33784 46.3269 3.33784C46.2369 3.34658 46.1649 3.39905 46.12 3.47776C46.102 3.51274 46.102 3.53897 46.093 3.57395C46.057 3.85379 46.012 4.13363 45.9761 4.41347C45.9581 4.57088 45.9491 4.72829 45.9491 4.8857C45.9401 4.92067 45.9491 4.9644 45.967 4.99938C45.9851 5.06934 46.039 5.11307 46.111 5.12181C46.2009 5.13056 46.2639 5.10432 46.2909 5.03436C46.3179 4.98189 46.3269 4.93817 46.3359 4.89445C46.3719 4.73703 46.3988 4.58837 46.4259 4.43971C46.4438 4.35226 46.4528 4.28229 46.4798 4.1861C46.4978 4.22108 46.5157 4.24732 46.5338 4.27355C46.6147 4.37849 46.6957 4.48343 46.7946 4.57088C46.8936 4.64084 46.9746 4.63209 47.0555 4.55339C47.0735 4.5359 47.0825 4.52716 47.1005 4.50966C47.1814 4.38723 47.2804 4.26481 47.3613 4.14237C47.3793 4.12488 47.3883 4.10739 47.4063 4.08991Z" fill="#4CFF68"/>
<path d="M26.6803 3.85947C26.6177 4.02566 26.6058 4.14539 26.6347 4.24491C26.6665 4.38024 26.7493 4.42454 26.8616 4.39013C27.9182 4.13613 30.235 4.85708 31.0928 5.05802C31.2951 5.10021 31.4596 4.84634 31.3216 4.61872C31.1201 4.39829 28.8043 3.45453 27.9207 3.40308C27.5744 3.38405 26.9552 3.2977 26.6803 3.85947Z" fill="#4CFF68"/>
<path d="M35.7348 0.804432C35.8474 0.867616 35.9104 0.927889 35.9414 0.995232C35.9877 1.08357 35.9633 1.14469 35.8856 1.17587C35.1872 1.50725 34.2578 2.93389 33.8827 3.42593C33.7917 3.53912 33.582 3.47334 33.5503 3.2872C33.5568 3.07674 34.3806 1.52852 34.8404 1.10683C35.0211 0.942193 35.3196 0.619153 35.7348 0.804432Z" fill="#4CFF68"/>
<path d="M30.173 0.102134C30.3083 0.00301287 30.4489 -0.031722 30.5207 0.032694C31.5744 0.908795 32.1332 2.29618 32.4792 3.5663C32.4923 3.59589 32.4931 3.63835 32.4827 3.68265C32.4783 3.72051 32.4499 3.76051 32.4047 3.79145C32.3564 3.82562 32.3149 3.83603 32.2953 3.80658C31.8335 3.1959 29.1958 0.819832 30.173 0.102134Z" fill="#4CFF68"/>
<path d="M7.85897 15.2916C8.11152 15.1088 8.38608 14.9566 8.67662 14.8385C8.98059 14.754 9.30459 14.768 9.59966 14.8785C9.89465 14.9889 10.1447 15.1897 10.3119 15.4506C10.4615 15.7108 10.52 16.0112 10.4787 16.3065C10.4374 16.6018 10.2985 16.8761 10.0829 17.0881C9.91584 17.2599 9.7261 17.4096 9.51881 17.5333C8.59488 18.1136 7.66272 18.662 6.73061 19.2423C6.53988 19.3875 6.33754 19.5178 6.12554 19.6318C5.80307 19.7882 5.43454 19.83 5.08367 19.7502C4.7328 19.6704 4.42166 19.4739 4.20406 19.1946C4.04139 18.9969 3.9041 18.7807 3.79523 18.5507C2.91217 16.7463 1.9964 14.9498 1.14604 13.1135C0.753566 12.3187 0.434683 11.4045 0.123976 10.5221C-0.0104507 10.2658 -0.0367012 9.96856 0.0508139 9.69365C0.138329 9.41874 0.332705 9.18788 0.592595 9.05015C0.852487 8.91242 1.15738 8.87874 1.44245 8.9562C1.72751 9.03365 1.97026 9.21617 2.11904 9.4649C2.57638 10.0558 2.98122 10.6834 3.32917 11.3409C4.21223 12.9307 5.05442 14.5205 5.90477 16.0627C5.95429 16.1479 6.00889 16.2301 6.0683 16.3091C6.70834 16.0474 7.31033 15.7054 7.85897 15.2916Z" fill="#4CFF68"/>
<path d="M16.9893 14.737C14.9697 17.0342 11.5846 16.4539 9.88394 13.4969C8.67379 11.3983 8.46122 7.93251 11.0941 5.74651C11.6563 5.28885 12.3286 4.97709 13.0482 4.8403C13.9306 4.71732 14.8304 4.86866 15.619 5.27269C16.4075 5.67672 17.0446 6.31276 17.4391 7.08991C18.8781 9.63364 18.6737 12.8768 16.9893 14.737ZM16.1717 9.37926C15.9571 8.75416 15.5267 8.22051 14.9534 7.86889C14.6289 7.6441 14.2347 7.5348 13.8371 7.55941C13.4395 7.58403 13.0628 7.74105 12.7702 8.00403C11.601 9.0136 11.3557 11.4063 12.206 12.8292C12.3145 13.0612 12.4736 13.2674 12.6725 13.4333C12.8715 13.5993 13.1053 13.721 13.3576 13.7899C13.61 13.8588 13.8747 13.8733 14.1334 13.8323C14.3922 13.7912 14.6385 13.6958 14.8553 13.5525C15.4891 13.0748 15.9541 12.417 16.1856 11.6705C16.4171 10.924 16.4037 10.1259 16.1472 9.38723L16.1717 9.37926Z" fill="#4CFF68"/>
<path d="M25.2312 10.3808C25.0244 10.4241 24.8108 10.4267 24.603 10.3884C24.3952 10.3502 24.1973 10.2719 24.0211 10.1583C23.8669 10.0725 23.7341 9.95463 23.6324 9.81301C23.5307 9.6714 23.4625 9.50967 23.4328 9.33936C23.4031 9.16911 23.4126 8.99456 23.4605 8.82826C23.5085 8.66197 23.5939 8.50808 23.7104 8.37765C23.9134 8.11556 24.2015 7.92792 24.528 7.84508C25.3806 7.60454 26.2582 7.45788 27.1445 7.4079C27.3393 7.38588 27.5365 7.4019 27.7248 7.45501C27.9131 7.5082 28.0885 7.59731 28.2408 7.71731C28.3931 7.83724 28.5193 7.98561 28.6119 8.15361C28.7044 8.32161 28.7615 8.5059 28.7798 8.69565C29.0353 9.6277 29.0633 10.6049 28.8615 11.5494C28.1257 14.6018 25.591 15.6511 22.7455 14.6734C21.9468 14.4119 21.2465 13.9249 20.7341 13.2743C20.0507 12.4909 19.5662 11.5625 19.3196 10.5637C19.1197 9.67426 19.1416 8.75136 19.3835 7.87188C19.6253 6.9924 20.0799 6.18189 20.7096 5.50805C21.3071 4.77566 22.0826 4.19927 22.9663 3.83078C23.5247 3.53157 24.1781 3.44649 24.7979 3.59231C24.9384 3.63014 25.066 3.70384 25.1675 3.80578C25.2689 3.90773 25.3404 4.03418 25.3746 4.17205C25.4088 4.30992 25.4045 4.45417 25.362 4.58985C25.3195 4.72553 25.2405 4.84769 25.1331 4.94366C24.9289 5.12335 24.7071 5.2831 24.4708 5.42061C23.7439 5.87065 23.1113 6.45057 22.6065 7.12965C22.2757 7.56908 22.0478 8.0737 21.9391 8.6079C21.8302 9.14211 21.8432 9.69301 21.977 10.2219C22.1624 10.943 22.5739 11.5902 23.1543 12.074C24.9532 13.6639 27.2917 12.1296 26.8829 9.95954C26.286 10.1027 25.7627 10.2537 25.2312 10.3808Z" fill="#4CFF68"/>
<path d="M36.2206 14.8642C33.5632 16.454 30.5379 14.8642 29.8756 11.5256C29.3932 9.14085 30.309 5.80221 33.5142 4.53035C34.1961 4.26557 34.9358 4.1726 35.6646 4.26008C36.5402 4.41591 37.3434 4.83497 37.961 5.4582C38.5785 6.08143 38.9794 6.87735 39.1069 7.73385C39.6465 10.5717 38.4201 13.6003 36.2206 14.8642ZM37.1446 9.51442C37.1438 8.85408 36.9035 8.21508 36.4659 7.70999C36.232 7.39758 35.8939 7.17374 35.5092 7.07658C35.1245 6.97949 34.7171 7.01508 34.3563 7.17742C32.9173 7.78151 31.9034 9.97547 32.2713 11.5892C32.2995 11.8424 32.3841 12.0866 32.5194 12.3048C32.6547 12.5229 32.8373 12.7096 33.0546 12.852C33.2719 12.9943 33.5185 13.0888 33.7772 13.1288C34.036 13.1688 34.3006 13.1534 34.5526 13.0836C35.3132 12.8253 35.9719 12.3425 36.4365 11.7026C36.9012 11.0627 37.1488 10.2977 37.1446 9.51442Z" fill="#4CFF68"/>
<path d="M41.7942 15.5318C41.7541 15.8228 41.5968 16.0863 41.3568 16.2645C41.1168 16.4425 40.8138 16.5207 40.5146 16.4817C40.2153 16.4427 39.9443 16.2897 39.761 16.0564C39.5778 15.8232 39.4974 15.5286 39.5375 15.2377C39.5776 14.9468 39.735 14.6832 39.9749 14.5051C40.2149 14.3269 40.5179 14.2488 40.8171 14.2878C41.1164 14.3268 41.3874 14.4797 41.5707 14.713C41.7539 14.9464 41.8344 15.2409 41.7942 15.5318ZM41.0828 4.80846C41.2383 4.57756 41.4665 4.40172 41.7332 4.30718C41.9999 4.21263 42.2909 4.20443 42.5628 4.28382C42.8392 4.35105 43.0834 4.50856 43.2546 4.72997C43.4258 4.95138 43.5135 5.22324 43.5031 5.50003C43.4671 5.94401 43.3988 6.38496 43.2987 6.81957C43.0289 8.29018 42.7672 9.76073 42.4811 11.2155C42.3502 11.7957 42.1785 12.3522 41.9904 12.9404C41.925 13.1243 41.8157 13.2904 41.6716 13.4253C41.582 13.5267 41.4675 13.6045 41.3387 13.6515C41.21 13.6986 41.0711 13.7132 40.935 13.6942C40.7989 13.6752 40.6698 13.6231 40.5599 13.5428C40.45 13.4624 40.3627 13.3564 40.3061 13.2345C40.2089 13.0159 40.1561 12.781 40.1507 12.543C40.1507 11.5572 40.1507 10.5636 40.2162 9.56995C40.3273 8.15191 40.5459 6.74374 40.8703 5.35694C40.9085 5.17115 40.9804 4.99347 41.0828 4.83231V4.80846Z" fill="#4CFF68"/>
<path fill-rule="evenodd" clip-rule="evenodd" d="M4.40441 21.9197C4.30787 22.1292 4.28139 22.3628 4.32857 22.5876C4.35995 22.8839 4.42889 23.1754 4.5338 23.4553C4.66479 23.7982 4.81136 24.1372 4.99209 24.555C5.03365 24.6511 5.07708 24.7515 5.12253 24.8571C5.36625 25.4231 5.67205 26.1465 6.07995 27.1935C6.1954 27.4909 6.29792 27.7907 6.40116 28.0927C6.44287 28.2146 6.48472 28.337 6.52757 28.4597C6.68114 28.8958 6.94539 29.2875 7.29565 29.598C7.44438 29.7687 7.64166 29.8931 7.86287 29.9552C8.0884 30.0187 8.32827 30.0146 8.5514 29.9437C8.77453 29.8727 8.97051 29.7382 9.11389 29.5574C9.25446 29.3802 9.33805 29.1667 9.3543 28.9436C9.4455 28.509 9.41437 28.0584 9.26406 27.6394C9.0255 26.9437 8.75375 26.247 8.44038 25.5656L8.43894 25.5626C7.92342 24.4965 7.3994 23.4378 6.85058 22.3787L6.84647 22.3712C6.68581 22.0953 6.47701 21.8486 6.22947 21.6423C6.06877 21.4582 5.8471 21.3339 5.6023 21.2911C5.35228 21.2474 5.09442 21.2914 4.87476 21.4155C4.66696 21.5308 4.50224 21.7074 4.40441 21.9197Z" fill="#4CFF68"/>
<path fill-rule="evenodd" clip-rule="evenodd" d="M12.2782 19.2945C11.4699 19.0909 10.6257 19.0613 9.80447 19.2076C9.1684 19.2685 8.54283 19.4111 8.10843 19.6937C7.88749 19.8375 7.70886 20.0221 7.6095 20.2568C7.50959 20.4928 7.49684 20.7626 7.57871 21.0633C7.7282 21.6141 7.92232 22.1496 8.11576 22.6834L8.1471 22.7698L8.14786 22.7717C8.7303 24.3225 9.3183 25.8679 9.91165 27.4081C9.98084 27.6508 10.0787 27.885 10.2032 28.1058L10.2055 28.1099C10.3701 28.3843 10.581 28.6297 10.8296 28.8358C10.9539 28.9491 11.1077 29.0275 11.2744 29.0625C11.4427 29.0979 11.6178 29.0876 11.7805 29.0328C11.9433 28.9781 12.0874 28.8809 12.1973 28.7519C12.3053 28.625 12.3761 28.4722 12.4021 28.3095C12.5093 27.8675 12.475 27.4042 12.3036 26.9818C12.2501 26.8396 12.2081 26.6943 12.1639 26.5414C12.1491 26.4904 12.1342 26.4385 12.1184 26.3857C13.4766 25.8695 14.9218 25.1755 15.4299 23.5609C15.6289 23.003 15.6455 22.3989 15.4774 21.8313C15.3091 21.2632 14.9639 20.7596 14.4892 20.3899C13.8432 19.8724 13.0886 19.4985 12.2782 19.2945ZM10.0376 21.2748C10.0644 21.2673 10.0913 21.2604 10.1183 21.2539C11.0026 21.1187 11.9072 21.2988 12.6658 21.7608C13 21.9868 13.137 22.2379 13.1605 22.4796C13.1848 22.7284 13.0917 22.998 12.9048 23.2571C12.5516 23.7467 11.907 24.1385 11.3248 24.2115C10.9003 23.2612 10.4693 22.2724 10.0376 21.2748Z" fill="#4CFF68"/>
<path d="M17.6671 17.5549C18.6297 17.1227 19.8221 17.0481 20.7552 17.3519C20.9902 17.4185 21.194 17.5624 21.3319 17.7591C21.4689 17.9546 21.5322 18.1902 21.5111 18.4257C21.5097 18.5785 21.4711 18.7289 21.3985 18.8646C21.3245 19.0028 21.2175 19.1215 21.0864 19.211C20.9553 19.3004 20.8039 19.3579 20.6452 19.3784C20.4864 19.399 20.3249 19.3821 20.1743 19.3291L20.1628 19.3251L20.152 19.3195C20.075 19.2803 19.9931 19.2508 19.9084 19.2316L19.9031 19.2304C19.2467 19.0609 18.6276 19.3418 18.4014 19.6868C18.2935 19.8514 18.2802 20.0174 18.37 20.1685C18.4662 20.3303 18.7022 20.5119 19.1796 20.6413C19.3109 20.6764 19.4455 20.7102 19.5821 20.7445C19.9596 20.8396 20.352 20.9383 20.7314 21.0752L20.7328 21.0757C22.4832 21.7232 23.135 23.0641 22.9118 24.3253C22.6911 25.5726 21.6197 26.7077 20.0084 26.9754C19.4222 27.1017 18.812 27.0771 18.2384 26.904C17.6634 26.7304 17.145 26.4135 16.7349 25.9848L16.7242 25.9736C16.5948 25.8121 16.5077 25.6223 16.4691 25.421C16.4335 25.2393 16.4523 25.0515 16.5229 24.8798C16.5931 24.709 16.7119 24.5613 16.8651 24.4536C17.027 24.3316 17.2222 24.2584 17.4265 24.2431C17.63 24.2279 17.8338 24.2709 18.0125 24.3668C18.1911 24.4506 18.3572 24.5576 18.5063 24.6848L18.5091 24.6872C18.7728 24.9216 19.0919 24.9827 19.3978 24.9261C19.7082 24.8687 20.0001 24.6902 20.1879 24.4532C20.3744 24.2178 20.4493 23.9381 20.3604 23.6666C20.271 23.3931 20.0021 23.0867 19.4114 22.8306C19.257 22.7668 19.0969 22.7154 18.9303 22.6654C18.8854 22.6519 18.8397 22.6384 18.7935 22.6248C18.6703 22.5884 18.5436 22.551 18.4194 22.5098C18.3338 22.4814 18.2489 22.4545 18.1648 22.4279C17.9351 22.3551 17.711 22.2842 17.4954 22.1891C17.0262 22.0338 16.6208 21.7356 16.3396 21.3385C16.0572 20.9399 15.9151 20.4633 15.9345 19.9797C15.936 18.8014 16.6994 17.9895 17.6671 17.5549Z" fill="#4CFF68"/>
<path d="M29.871 17.4295C29.6843 17.3409 29.4779 17.2988 29.2704 17.307C29.0629 17.3154 28.8607 17.3737 28.6822 17.477C28.5048 17.5796 28.3563 17.7232 28.2499 17.895C28.1523 18.0398 28.0848 18.2017 28.0511 18.3716C28.0174 18.5415 28.0183 18.716 28.0534 18.8855C28.0882 19.1032 28.1267 19.315 28.1648 19.5238C28.2278 19.8695 28.2891 20.2073 28.3296 20.5518L28.3311 20.5605C28.4232 21.1007 28.4714 21.647 28.4757 22.1945L28.4761 22.2023C28.5076 22.7936 28.3004 23.3733 27.8989 23.8185L27.8925 23.8265C27.7619 23.9892 27.5872 24.1134 27.388 24.1852C27.1889 24.257 26.9732 24.2735 26.7649 24.2329C26.5567 24.1923 26.3642 24.0961 26.2089 23.9552C26.0537 23.8143 25.9417 23.6336 25.8858 23.4344C25.7665 23.0146 25.6975 22.5828 25.6799 22.1477L25.8837 18.9934C25.8867 18.9522 25.8901 18.9099 25.8936 18.8673C25.9014 18.7715 25.9093 18.6739 25.9126 18.5829C25.9174 18.449 25.9133 18.3112 25.8812 18.1809C25.8484 18.0476 25.7859 17.9209 25.6751 17.813C25.5654 17.7061 25.4173 17.6273 25.2309 17.5736C24.8939 17.4788 24.6089 17.4818 24.3714 17.5798C24.1338 17.6778 23.971 17.8597 23.8558 18.0698C23.7415 18.2782 23.6681 18.5248 23.6125 18.7719C23.5713 18.9553 23.5382 19.1478 23.5067 19.331C23.4958 19.3941 23.4852 19.4561 23.4744 19.5163L23.4742 19.518C23.3058 20.5228 23.2556 21.5429 23.3247 22.5587C23.3376 23.1076 23.4554 23.6495 23.6721 24.1565C23.9165 24.8108 24.3593 25.3777 24.9419 25.7823C25.5258 26.1878 26.2226 26.4112 26.94 26.423C27.6574 26.4348 28.3615 26.2344 28.9592 25.8485C29.5559 25.463 30.0183 24.9106 30.2854 24.2643C30.6589 23.441 30.8343 22.5457 30.7981 21.6465C30.7761 20.99 30.7394 20.3285 30.7028 19.6704C30.6849 19.3475 30.667 19.0254 30.6509 18.7052C30.6428 18.3841 30.5339 18.0731 30.3388 17.814C30.218 17.6501 30.0573 17.518 29.871 17.4295Z" fill="#4CFF68"/>
<path d="M36.4773 22.3754C36.4584 22.3988 36.4384 22.423 36.4176 22.4481C36.2658 21.5967 36.1251 20.7455 35.9841 19.893C35.9336 19.5872 35.8828 19.28 35.8317 18.9737L35.8259 18.9396L35.8073 18.91C35.7721 18.8545 35.7686 18.8 35.7686 18.6838V18.6704L35.7665 18.6571C35.7284 18.4172 35.6167 18.1939 35.4462 18.0164C35.2761 17.8395 35.0553 17.7164 34.8123 17.6629C34.5698 17.6048 34.3149 17.6176 34.0798 17.6998C33.8453 17.7818 33.6408 17.9292 33.492 18.1236C33.3683 18.2727 33.2669 18.4381 33.191 18.6148C33.0185 18.9955 32.8445 19.3772 32.6701 19.7599L32.6671 19.7665C32.2316 20.722 31.7931 21.6838 31.3674 22.6532L31.3661 22.6564C31.1048 23.2849 30.8891 23.9472 30.6741 24.6075C30.6312 24.7393 30.5883 24.871 30.545 25.0024C30.4674 25.2108 30.4334 25.4321 30.4451 25.6534C30.431 25.8514 30.4797 26.049 30.5849 26.2194C30.6921 26.3933 30.8528 26.53 31.0442 26.6106C31.247 26.697 31.4738 26.7154 31.6886 26.6627C31.903 26.6102 32.0933 26.4899 32.2297 26.3208C32.4039 26.1125 32.5537 25.8853 32.6759 25.6446C33.0365 24.9275 33.3812 24.2016 33.7242 23.4789C33.857 23.1994 33.986 22.949 34.1327 22.6763C34.1428 22.7099 34.1531 22.7427 34.1637 22.7756C34.3175 23.4339 34.5771 24.0644 34.9329 24.6441C35.0003 24.7669 35.0941 24.8742 35.2079 24.9587C35.3231 25.0442 35.4561 25.1042 35.5975 25.1347C35.739 25.1652 35.8856 25.1653 36.0271 25.1351C36.1685 25.105 36.3018 25.0449 36.4171 24.9598L36.6452 24.7938L38.416 23.3438L38.3112 23.9925C38.1675 24.8843 38.0249 25.7686 37.8733 26.6531C37.7742 27.0452 37.7743 27.4547 37.8738 27.8466C37.9168 28.0671 38.0265 28.2702 38.1889 28.4299C38.3527 28.5908 38.5624 28.7002 38.7908 28.7438C39.0193 28.7874 39.256 28.7633 39.4702 28.6744C39.6812 28.5869 39.8608 28.4406 39.9862 28.2542C40.2782 27.902 40.4599 27.4757 40.5099 27.0259C40.585 26.3907 40.6699 25.7468 40.7549 25.1032C40.8527 24.3613 40.9506 23.6196 41.0332 22.8922L41.0335 22.8899C41.113 22.0937 41.1515 21.2941 41.1488 20.494C41.1662 20.2412 41.1015 19.9894 40.9635 19.7741C40.8251 19.5581 40.62 19.3902 40.3777 19.2941C40.1256 19.1827 39.8435 19.1529 39.5727 19.2092C39.3037 19.2651 39.0602 19.403 38.8775 19.6027C38.5509 19.8964 38.2445 20.2106 37.9603 20.5434L37.9584 20.5457C37.6481 20.9215 37.3399 21.3048 37.0338 21.6856C36.8476 21.9171 36.662 22.148 36.4773 22.3754Z" fill="#4CFF68"/>
</g>
<defs>
<clipPath id="clip0_207_1838">
<rect width="48" height="30" fill="white"/>
</clipPath>
</defs>
</svg>
